<svg version="1.1" viewBox="0.0 0.0 566.9291338582677 566.9291338582677" fill="none" stroke="none" stroke-linecap="square" stroke-miterlimit="10" xmlns:xlink="http://www.w3.org/1999/xlink" xmlns="http://www.w3.org/2000/svg"><clipPath id="g2cd8e456664_0_85.0"><path d="m0 0l566.92914 0l0 566.92914l-566.92914 0l0 -566.92914z" clip-rule="nonzero"/></clipPath><g clip-path="url(#g2cd8e456664_0_85.0)"><path fill="#0c4160" d="m0 0l566.92914 0l0 566.92914l-566.92914 0z" fill-rule="evenodd"/><path fill="#ffffff" d="m57.84646 60.098507l40.44094 0l0 40.440945l-40.44094 0z" fill-rule="evenodd"/><path fill="#ffffff" d="m116.53152 60.098507l40.44094 0l0 40.440945l-40.44094 0z" fill-rule="evenodd"/><path fill="#ffffff" d="m57.84646 118.14013l40.44094 0l0 40.44094l-40.44094 0z" fill-rule="evenodd"/><path fill="#ffffff" d="m116.53152 118.14013l40.44094 0l0 40.44094l-40.44094 0z" fill-rule="evenodd"/><path fill="#ffffff" d="m175.21658 60.098507l40.44095 0l0 40.440945l-40.44095 0z" fill-rule="evenodd"/><path fill="#ffffff" d="m233.90164 60.098507l40.44095 0l0 40.440945l-40.44095 0z" fill-rule="evenodd"/><path fill="#ffffff" d="m175.21658 118.14013l40.44095 0l0 40.44094l-40.44095 0z" fill-rule="evenodd"/><path fill="#ffffff" d="m233.90164 118.14013l40.44095 0l0 40.44094l-40.44095 0z" fill-rule="evenodd"/><path fill="#ffffff" d="m292.5867 60.098507l40.44095 0l0 40.440945l-40.44095 0z" fill-rule="evenodd"/><path fill="#ffffff" d="m351.27176 60.098507l40.44095 0l0 40.440945l-40.44095 0z" fill-rule="evenodd"/><path fill="#ffffff" d="m292.5867 118.14013l40.44095 0l0 40.44094l-40.44095 0z" fill-rule="evenodd"/><path fill="#ffffff" d="m351.27176 118.14013l40.44095 0l0 40.44094l-40.44095 0z" fill-rule="evenodd"/><path fill="#ffffff" d="m409.95685 60.098507l40.440918 0l0 40.440945l-40.440918 0z" fill-rule="evenodd"/><path fill="#ffffff" d="m468.6419 60.098507l40.44095 0l0 40.440945l-40.44095 0z" fill-rule="evenodd"/><path fill="#ffffff" d="m409.95685 118.14013l40.440918 0l0 40.44094l-40.440918 0z" fill-rule="evenodd"/><path fill="#ffffff" d="m468.6419 118.14013l40.44095 0l0 40.44094l-40.44095 0z" fill-rule="evenodd"/><path fill="#ffffff" d="m57.84646 176.18176l40.44094 0l0 40.440933l-40.44094 0z" fill-rule="evenodd"/><path fill="#ffffff" d="m116.53152 176.18176l40.44094 0l0 40.440933l-40.44094 0z" fill-rule="evenodd"/><path fill="#ffffff" d="m57.84646 234.22339l40.44094 0l0 40.44095l-40.44094 0z" fill-rule="evenodd"/><path fill="#ffffff" d="m116.53152 234.22339l40.44094 0l0 40.44095l-40.44094 0z" fill-rule="evenodd"/><path fill="#ffffff" d="m175.21658 176.18176l40.44095 0l0 40.440933l-40.44095 0z" fill-rule="evenodd"/><path fill="#ffffff" d="m233.90164 176.18176l40.44095 0l0 40.440933l-40.44095 0z" fill-rule="evenodd"/><path fill="#ffffff" d="m175.21658 234.22339l40.44095 0l0 40.44095l-40.44095 0z" fill-rule="evenodd"/><path fill="#ffffff" d="m233.90164 234.22339l40.44095 0l0 40.44095l-40.44095 0z" fill-rule="evenodd"/><path fill="#ffffff" d="m292.5867 176.18176l40.44095 0l0 40.440933l-40.44095 0z" fill-rule="evenodd"/><path fill="#ffffff" d="m351.27176 176.18176l40.44095 0l0 40.440933l-40.44095 0z" fill-rule="evenodd"/><path fill="#ffffff" d="m292.5867 234.22339l40.44095 0l0 40.44095l-40.44095 0z" fill-rule="evenodd"/><path fill="#ffffff" d="m351.27176 234.22339l40.44095 0l0 40.44095l-40.44095 0z" fill-rule="evenodd"/><path fill="#ffffff" d="m409.95685 176.18176l40.440918 0l0 40.440933l-40.440918 0z" fill-rule="evenodd"/><path fill="#ffffff" d="m468.6419 176.18176l40.44095 0l0 40.440933l-40.44095 0z" fill-rule="evenodd"/><path fill="#ffffff" d="m409.95685 234.22339l40.440918 0l0 40.44095l-40.440918 0z" fill-rule="evenodd"/><path fill="#ffffff" d="m468.6419 234.22339l40.44095 0l0 40.44095l-40.44095 0z" fill-rule="evenodd"/><path fill="#ffffff" d="m57.84646 292.265l40.44094 0l0 40.44095l-40.44094 0z" fill-rule="evenodd"/><path fill="#ffffff" d="m116.53152 292.265l40.44094 0l0 40.44095l-40.44094 0z" fill-rule="evenodd"/><path fill="#ffffff" d="m57.84646 350.30664l40.44094 0l0 40.44095l-40.44094 0z" fill-rule="evenodd"/><path fill="#ffffff" d="m116.53152 350.30664l40.44094 0l0 40.44095l-40.44094 0z" fill-rule="evenodd"/><path fill="#ffffff" d="m175.21658 292.265l40.44095 0l0 40.44095l-40.44095 0z" fill-rule="evenodd"/><path fill="#ffffff" d="m233.90164 292.265l40.44095 0l0 40.44095l-40.44095 0z" fill-rule="evenodd"/><path fill="#ffffff" d="m175.21658 350.30664l40.44095 0l0 40.44095l-40.44095 0z" fill-rule="evenodd"/><path fill="#ffffff" d="m233.90164 350.30664l40.44095 0l0 40.44095l-40.44095 0z" fill-rule="evenodd"/><path fill="#ffffff" d="m292.5867 292.265l40.44095 0l0 40.44095l-40.44095 0z" fill-rule="evenodd"/><path fill="#ffffff" d="m351.27176 292.265l40.44095 0l0 40.44095l-40.44095 0z" fill-rule="evenodd"/><path fill="#ffffff" d="m292.5867 350.30664l40.44095 0l0 40.44095l-40.44095 0z" fill-rule="evenodd"/><path fill="#ffab40" d="m358.01007 352.18503l40.188965 4.8189087l-4.8189087 40.188965l-40.188965 -4.818878z" fill-rule="evenodd"/><path fill="#ffffff" d="m409.95685 292.265l40.440918 0l0 40.44095l-40.440918 0z" fill-rule="evenodd"/><path fill="#ffffff" d="m468.6419 292.265l40.44095 0l0 40.44095l-40.44095 0z" fill-rule="evenodd"/><path fill="#ffffff" d="m409.95685 350.30664l40.440918 0l0 40.44095l-40.440918 0z" fill-rule="evenodd"/><path fill="#ffffff" d="m468.6419 350.30664l40.44095 0l0 40.44095l-40.44095 0z" fill-rule="evenodd"/><path fill="#ffffff" d="m57.84646 408.34827l40.44094 0l0 40.44095l-40.44094 0z" fill-rule="evenodd"/><path fill="#ffffff" d="m116.53152 408.34827l40.44094 0l0 40.44095l-40.44094 0z" fill-rule="evenodd"/><path fill="#ffffff" d="m57.84646 466.3899l40.44094 0l0 40.44095l-40.44094 0z" fill-rule="evenodd"/><path fill="#ffffff" d="m116.53152 466.3899l40.44094 0l0 40.44095l-40.44094 0z" fill-rule="evenodd"/><path fill="#ffffff" d="m175.21658 408.34827l40.44095 0l0 40.44095l-40.44095 0z" fill-rule="evenodd"/><path fill="#ffffff" d="m233.90164 408.34827l40.44095 0l0 40.44095l-40.44095 0z" fill-rule="evenodd"/><path fill="#ffffff" d="m175.21658 466.3899l40.44095 0l0 40.44095l-40.44095 0z" fill-rule="evenodd"/><path fill="#ffffff" d="m233.90164 466.3899l40.44095 0l0 40.44095l-40.44095 0z" fill-rule="evenodd"/><path fill="#ffffff" d="m292.5867 408.34827l40.44095 0l0 40.44095l-40.44095 0z" fill-rule="evenodd"/><path fill="#ffffff" d="m351.27176 408.34827l40.44095 0l0 40.44095l-40.44095 0z" fill-rule="evenodd"/><path fill="#ffffff" d="m292.5867 466.3899l40.44095 0l0 40.44095l-40.44095 0z" fill-rule="evenodd"/><path fill="#ffffff" d="m351.27176 466.3899l40.44095 0l0 40.44095l-40.44095 0z" fill-rule="evenodd"/><path fill="#ffffff" d="m409.95685 408.34827l40.440918 0l0 40.44095l-40.440918 0z" fill-rule="evenodd"/><path fill="#ffffff" d="m468.6419 408.34827l40.44095 0l0 40.44095l-40.44095 0z" fill-rule="evenodd"/><path fill="#ffffff" d="m409.95685 466.3899l40.440918 0l0 40.44095l-40.440918 0z" fill-rule="evenodd"/><path fill="#ffffff" d="m468.6419 466.3899l40.44095 0l0 40.44095l-40.44095 0z" fill-rule="evenodd"/></g></svg>