<svg version="1.1" viewBox="0.0 0.0 566.9291338582677 566.9291338582677" fill="none" stroke="none" stroke-linecap="square" stroke-miterlimit="10" xmlns:xlink="http://www.w3.org/1999/xlink" xmlns="http://www.w3.org/2000/svg"><clipPath id="g2cd8e456664_0_160.0"><path d="m0 0l566.92914 0l0 566.92914l-566.92914 0l0 -566.92914z" clip-rule="nonzero"/></clipPath><g clip-path="url(#g2cd8e456664_0_160.0)"><path fill="#0c4160" d="m0 0l566.92914 0l0 566.92914l-566.92914 0z" fill-rule="evenodd"/><path fill="#eeeeee" d="m50.17323 283.46457l29.937008 -51.779526l29.937004 51.779526z" fill-rule="evenodd"/><path fill="#eeeeee" d="m117.95801 283.46457l29.937012 -51.779526l29.936996 51.779526z" fill-rule="evenodd"/><path fill="#eeeeee" d="m185.74278 283.46457l29.937012 -51.779526l29.936996 51.779526z" fill-rule="evenodd"/><path fill="#eeeeee" d="m253.52756 283.46457l29.937012 -51.779526l29.937012 51.779526z" fill-rule="evenodd"/><path fill="#eeeeee" d="m389.0971 283.46457l29.937012 -51.779526l29.937012 51.779526z" fill-rule="evenodd"/><path fill="#eeeeee" d="m456.8819 283.46457l29.937012 -51.779526l29.937012 51.779526z" fill-rule="evenodd"/><path fill="#ffab40" d="m381.18634 283.46457l0 51.77951l-59.873993 -51.77951z" fill-rule="evenodd"/></g></svg>